<svg viewBox="0 0 100 100" xmlns="http://www.w3.org/2000/svg">
    <path fill-rule="evenodd" clip-rule="evenodd" d="M21.6158 44.041H74.8601C75.3372 44.0445 75.8102 43.9536 76.252 43.7735C76.6938 43.5934 77.0955 43.3276 77.4341 42.9915C77.7727 42.6554 78.0414 42.2556 78.2248 41.8152C78.4082 41.3748 78.5026 40.9024 78.5026 40.4253V32.9529C78.5062 32.4748 78.4142 32.0008 78.2321 31.5588C78.05 31.1167 77.7814 30.7155 77.4421 30.3786C77.1028 30.0418 76.6996 29.7762 76.2562 29.5974C75.8128 29.4185 75.3382 29.3301 74.8601 29.3372H67.0931L52.1215 11.9284C51.5892 11.3231 50.9341 10.8381 50.1999 10.5056C49.4656 10.1731 48.669 10.0008 47.863 10C47.0583 10.0096 46.2654 10.1942 45.5392 10.5411C44.8131 10.888 44.1712 11.3888 43.6581 12.0087L29.3292 29.3372H21.6158C21.14 29.3337 20.6682 29.4248 20.2279 29.6052C19.7876 29.7856 19.3876 30.0518 19.0512 30.3883C18.7147 30.7248 18.4485 31.1248 18.2681 31.565C18.0876 32.0053 17.9965 32.4771 18.0001 32.9529V40.4253C18.0001 41.3843 18.381 42.3039 19.0591 42.982C19.7372 43.6601 20.6568 44.041 21.6158 44.041ZM46.8988 14.5799C47.0245 14.4329 47.1806 14.3148 47.3563 14.2339C47.532 14.153 47.7231 14.1111 47.9165 14.1111C48.11 14.1111 48.3011 14.153 48.4768 14.2339C48.6525 14.3148 48.8086 14.4329 48.9343 14.5799L61.4687 29.3372H34.6858L46.8988 14.5799ZM66.8251 56.4951C70.4791 56.4782 74.0568 57.5404 77.1097 59.5483L78.0203 51.5135C78.0768 51.0083 78.0261 50.4968 77.8716 50.0125C77.717 49.5283 77.4621 49.082 77.1235 48.7029C76.7848 48.3238 76.37 48.0204 75.9061 47.8124C75.4423 47.6044 74.9398 47.4966 74.4314 47.496H22.0441C21.5358 47.4966 21.0333 47.6044 20.5694 47.8124C20.1056 48.0204 19.6908 48.3238 19.3521 48.7029C19.0134 49.082 18.7585 49.5283 18.604 50.0125C18.4494 50.4968 18.3988 51.0083 18.4552 51.5135L21.8299 80.921C21.9347 81.7993 22.3578 82.6087 23.0192 83.196C23.6806 83.7833 24.5343 84.1079 25.4188 84.1082H50.2197C48.775 81.379 48.0383 78.3308 48.0771 75.2431C48.0771 70.2708 50.0523 65.5022 53.5682 61.9862C57.0842 58.4703 61.8528 56.4951 66.8251 56.4951ZM67.5499 60.8744C70.8881 61.022 74.0741 62.3124 76.574 64.5295C78.0957 65.8724 79.3183 67.52 80.1626 69.3655C81.0069 71.211 81.4542 73.2133 81.4753 75.2427C81.5183 78.5838 80.4115 81.8382 78.3405 84.4604C76.2695 87.0827 73.3601 88.9134 70.1 89.6457C66.8398 90.3781 63.427 89.9676 60.4334 88.483C57.4399 86.9985 55.0476 84.5301 53.6575 81.4916C52.2673 78.4531 51.9639 75.029 52.7979 71.7934C53.6319 68.5577 55.5528 65.7071 58.2386 63.7192C60.9243 61.7312 64.2118 60.7269 67.5499 60.8744ZM69.2891 78.2959H74.0832V73.3947H69.2891V68.5737H64.4146V73.3947H59.6205V78.2423H64.4146V83.0097H69.2891V78.2959Z" />
</svg>
