<svg viewBox="0 0 55 55" xmlns="http://www.w3.org/2000/svg">
    <path d="M43.3162 36.9792C43.3162 40.4133 42.1091 43.207 39.7098 45.3738C37.2955 47.5406 34.1511 48.8352 30.2765 49.2849V54.6678H25.9696V49.3394C22.3036 49.135 19.1741 48.2356 16.5662 46.6139C13.9582 45.0058 12.0805 42.7982 10.933 40.0181L17.4901 36.5704C19.04 40.1272 21.8566 42.1032 25.9696 42.512V29.9201C23.9876 29.2387 22.3632 28.6119 21.1412 28.0668C19.9043 27.5217 18.5929 26.7585 17.207 25.791C15.821 24.8234 14.7779 23.6378 14.0923 22.2478C13.4068 20.8578 13.0641 19.2361 13.0641 17.3691C13.0641 13.9759 14.301 11.2367 16.7748 9.13808C19.2486 7.03943 22.3185 5.82658 25.9845 5.49952V0.157509H30.2914V5.55403C36.2077 6.27629 40.3208 9.04268 42.6157 13.8532L36.163 17.2329C35.0155 14.6027 33.0483 13.0083 30.2616 12.4496V24.4418C31.6773 24.9324 32.7503 25.314 33.4805 25.5866C34.2107 25.8727 35.1794 26.2952 36.4014 26.8539C37.6085 27.4263 38.5474 27.985 39.218 28.5437C39.8737 29.1161 40.5741 29.7975 41.3043 30.6015C42.0345 31.4055 42.5561 32.3458 42.8542 33.4224C43.1671 34.5126 43.3162 35.6846 43.3162 36.9792ZM20.6644 17.3555C20.6644 18.6092 21.0667 19.6313 21.8864 20.449C22.706 21.253 24.0621 22.0706 25.9547 22.8747V12.3406C24.3155 12.5858 23.0338 13.1446 22.0801 14.0304C21.1412 14.9162 20.6644 16.02 20.6644 17.3555ZM30.2616 42.4302C32.0201 42.1032 33.3762 41.4627 34.3001 40.4951C35.2241 39.5276 35.6861 38.3692 35.6861 37.0473C35.6861 35.7118 35.239 34.6353 34.3598 33.804C33.4805 32.9727 32.1095 32.1823 30.2467 31.4055V42.4302H30.2616Z" />
</svg>