<svg viewBox="0 0 26 26" xmlns="http://www.w3.org/2000/svg">
<path fill-rule="evenodd" clip-rule="evenodd" d="M13 24C19.0751 24 24 19.0751 24 13C24 6.92487 19.0751 2 13 2C6.92487 2 2 6.92487 2 13C2 19.0751 6.92487 24 13 24ZM13 6C13.5523 6 14 6.44772 14 7V15C14 15.5523 13.5523 16 13 16C12.4477 16 12 15.5523 12 15V7C12 6.44772 12.4477 6 13 6ZM14.25 19C14.25 19.6904 13.6904 20.25 13 20.25C12.3096 20.25 11.75 19.6904 11.75 19C11.75 18.3096 12.3096 17.75 13 17.75C13.6904 17.75 14.25 18.3096 14.25 19Z"></path>
</svg>
