<svg viewBox="0 0 20 20" xmlns="http://www.w3.org/2000/svg">
<path d="M6.14844 8.76562C5.91406 8.76562 5.8125 8.67448 5.84375 8.49219L5.92969 8.02344C5.96094 7.84115 6.09375 7.75 6.32812 7.75H6.85938C7.05208 6.67188 7.45833 5.72135 8.07812 4.89844C8.70312 4.07031 9.66406 3.65625 10.9609 3.65625C11.4453 3.65625 11.888 3.71875 12.2891 3.84375C12.6901 3.96875 13.0964 4.28125 13.5078 4.78125C13.737 5.0625 13.7656 5.27083 13.5938 5.40625L13.1797 5.73438C12.9401 5.92188 12.737 5.86979 12.5703 5.57812C12.4193 5.3125 12.2109 5.1224 11.9453 5.00781C11.6797 4.88802 11.3151 4.82812 10.8516 4.82812C10.0807 4.82812 9.50781 5.16406 9.13281 5.83594C8.76302 6.50781 8.51823 7.14583 8.39844 7.75H11.5547C11.7891 7.75 11.8906 7.84115 11.8594 8.02344L11.7734 8.49219C11.7422 8.67448 11.6094 8.76562 11.375 8.76562H8.26562C8.23958 9.08854 8.22656 9.48958 8.22656 9.96875H11.5547C11.7891 9.96875 11.8906 10.0599 11.8594 10.2422L11.7734 10.7109C11.7422 10.8932 11.6094 10.9844 11.375 10.9844H8.28125C8.36458 11.8177 8.57292 12.5391 8.90625 13.1484C9.24479 13.7578 9.84896 14.0625 10.7188 14.0625C11.2552 14.0625 11.6562 13.9661 11.9219 13.7734C12.1875 13.5807 12.4583 13.3464 12.7344 13.0703C12.974 12.8307 13.1771 12.7865 13.3438 12.9375L13.7031 13.2578C13.8594 13.3984 13.8229 13.6042 13.5938 13.875C13.2604 14.2656 12.8828 14.5911 12.4609 14.8516C12.0391 15.1068 11.4401 15.2344 10.6641 15.2344C9.29948 15.2344 8.33333 14.8359 7.76562 14.0391C7.20312 13.237 6.86458 12.2188 6.75 10.9844H6.14844C5.91406 10.9844 5.8125 10.8932 5.84375 10.7109L5.92969 10.2422C5.96094 10.0599 6.09375 9.96875 6.32812 9.96875H6.69531C6.69531 9.48958 6.70833 9.08854 6.73438 8.76562H6.14844Z"></path>
</svg>
