<svg viewBox="0 0 20 20" xmlns="http://www.w3.org/2000/svg">
    <path fill-rule="evenodd" clip-rule="evenodd" d="M3.18544 5.93129C2.95477 5.6919 2.9559 5.30485 3.18796 5.06681L6.96967 1.18766C7.20173 0.949613 7.57685 0.95071 7.80752 1.19011C8.03819 1.4295 8.03705 1.81655 7.80499 2.05459L5.03771 4.89318L17.013 4.92819L17.0095 6.15076L5.03414 6.11574L7.78477 8.97046C8.01544 9.20986 8.01431 9.5969 7.78224 9.83495C7.55018 10.073 7.17506 10.0719 6.94439 9.8325L3.18544 5.93129Z"></path>
    <path fill-rule="evenodd" clip-rule="evenodd" d="M16.8265 14.0679C17.0578 14.3065 17.0578 14.6935 16.8265 14.9321L13.0556 18.821C12.8242 19.0597 12.449 19.0597 12.2176 18.821C11.9862 18.5824 11.9862 18.1955 12.2176 17.9568L14.977 15.1111L3 15.1111L3 13.8889L14.977 13.8889L12.2176 11.0432C11.9862 10.8045 11.9862 10.4176 12.2176 10.179C12.449 9.94034 12.8242 9.94034 13.0556 10.179L16.8265 14.0679Z"></path>
</svg>
