<svg viewBox="0 0 24 24" fill="none" xmlns="http://www.w3.org/2000/svg">
	<path d="M23.6318 6H0V18.152H23.6318V6Z" fill="#449B38"/>
	<path d="M19.8449 7.75715H3.78976C3.78976 8.87939 2.87994 9.78922 1.75769 9.78922V14.3614C2.87994 14.3614 3.78976 15.2713 3.78976 16.3935H19.8449C19.8444 16.3733 19.8418 16.3533 19.8418 16.3328C19.8418 15.2106 20.7516 14.3008 21.8738 14.3008V9.72856C20.7723 9.72856 19.8775 8.85104 19.8449 7.75715Z" fill="#62C751"/>
	<path d="M11.8148 15.6922C13.8126 15.6922 15.4321 14.0727 15.4321 12.0749C15.4321 10.0772 13.8126 8.4577 11.8148 8.4577C9.81709 8.4577 8.1976 10.0772 8.1976 12.0749C8.1976 14.0727 9.81709 15.6922 11.8148 15.6922Z" fill="#449B38"/>
	<path d="M6.22696 12.7981C6.62648 12.7981 6.95036 12.4742 6.95036 12.0747C6.95036 11.6752 6.62648 11.3513 6.22696 11.3513C5.82745 11.3513 5.50357 11.6752 5.50357 12.0747C5.50357 12.4742 5.82745 12.7981 6.22696 12.7981Z" fill="#449B38"/>
	<path d="M17.4048 12.7981C17.8043 12.7981 18.1282 12.4742 18.1282 12.0747C18.1282 11.6752 17.8043 11.3513 17.4048 11.3513C17.0053 11.3513 16.6814 11.6752 16.6814 12.0747C16.6814 12.4742 17.0053 12.7981 17.4048 12.7981Z" fill="#449B38"/>
	<path d="M11.7873 13.9783C11.2361 13.9783 10.749 13.6864 10.5466 13.2345L11.2655 12.9123C11.3388 13.0761 11.5533 13.1906 11.7873 13.1906C12.0212 13.1906 12.2357 13.0761 12.309 12.9123C12.3324 12.855 12.3389 12.8044 12.3245 12.7736C12.3016 12.7259 12.1958 12.5996 11.7035 12.4528C11.2936 12.3307 10.7976 12.1364 10.5973 11.717C10.5182 11.5521 10.4547 11.2812 10.5991 10.9283C10.8065 10.4646 11.2936 10.1726 11.8448 10.1726C12.3959 10.1726 12.8827 10.4646 13.0857 10.9165L12.3668 11.2389C12.293 11.0748 12.0784 10.96 11.8445 10.96C11.6105 10.96 11.396 11.0745 11.3228 11.2384C11.2994 11.2956 11.2926 11.3463 11.3075 11.377C11.3301 11.4245 11.4362 11.5511 11.9283 11.6979C12.3381 11.82 12.8341 12.0143 13.0347 12.4336C13.1138 12.5988 13.1773 12.8695 13.0326 13.2226C12.8255 13.6861 12.3384 13.9783 11.7873 13.9783Z" fill="#62C751"/>
	<path d="M12.1809 13.5858H11.3931V14.4969H12.1809V13.5858Z" fill="#62C751"/>
	<path d="M12.1809 9.65504H11.3931V10.5662H12.1809V9.65504Z" fill="#62C751"/>
	<path d="M2.26549 8.75336C2.54653 8.75336 2.77436 8.52553 2.77436 8.24449C2.77436 7.96345 2.54653 7.73562 2.26549 7.73562C1.98445 7.73562 1.75662 7.96345 1.75662 8.24449C1.75662 8.52553 1.98445 8.75336 2.26549 8.75336Z" fill="#62C751"/>
	<path d="M2.26549 16.3943C2.54653 16.3943 2.77436 16.1665 2.77436 15.8854C2.77436 15.6044 2.54653 15.3765 2.26549 15.3765C1.98445 15.3765 1.75662 15.6044 1.75662 15.8854C1.75662 16.1665 1.98445 16.3943 2.26549 16.3943Z" fill="#62C751"/>
	<path d="M21.3652 8.76386C21.6462 8.76386 21.8741 8.53604 21.8741 8.25499C21.8741 7.97395 21.6462 7.74612 21.3652 7.74612C21.0842 7.74612 20.8563 7.97395 20.8563 8.25499C20.8563 8.53604 21.0842 8.76386 21.3652 8.76386Z" fill="#62C751"/>
	<path d="M21.3652 16.4048C21.6462 16.4048 21.8741 16.177 21.8741 15.8959C21.8741 15.6149 21.6462 15.3871 21.3652 15.3871C21.0842 15.3871 20.8563 15.6149 20.8563 15.8959C20.8563 16.177 21.0842 16.4048 21.3652 16.4048Z" fill="#62C751"/>
	<path d="M20.2401 19.1487C21.7545 19.1487 22.9821 17.921 22.9821 16.4066C22.9821 14.8922 21.7545 13.6646 20.2401 13.6646C18.7257 13.6646 17.498 14.8922 17.498 16.4066C17.498 17.921 18.7257 19.1487 20.2401 19.1487Z" fill="#EAB028"/>
	<path d="M20.2398 18.6283C21.4669 18.6283 22.4617 17.6335 22.4617 16.4064C22.4617 15.1792 21.4669 14.1845 20.2398 14.1845C19.0127 14.1845 18.0179 15.1792 18.0179 16.4064C18.0179 17.6335 19.0127 18.6283 20.2398 18.6283Z" fill="#FFC336"/>
	<path d="M20.2233 17.5761C19.8848 17.5761 19.5855 17.3968 19.4613 17.1193L19.9029 16.9215C19.9481 17.0221 20.0796 17.0925 20.2233 17.0925C20.3669 17.0925 20.4987 17.0221 20.5439 16.9215C20.5583 16.8864 20.5622 16.8551 20.5533 16.8362C20.5394 16.8068 20.4743 16.7293 20.1718 16.6393C19.92 16.5642 19.6154 16.445 19.4922 16.1874C19.4437 16.086 19.4045 15.9196 19.4936 15.7027C19.6209 15.4178 19.92 15.2384 20.2587 15.2384C20.5972 15.2384 20.8962 15.4178 21.021 15.6956L20.5793 15.8936C20.5341 15.7927 20.4023 15.7224 20.2587 15.7224C20.1151 15.7224 19.9833 15.7927 19.9384 15.8933C19.9239 15.9285 19.92 15.9595 19.9289 15.9786C19.9428 16.0078 20.0079 16.0855 20.3102 16.1756C20.562 16.2507 20.8666 16.3699 20.9897 16.6275C21.0383 16.7288 21.0774 16.8953 20.9884 17.1122C20.8611 17.3968 20.5617 17.5761 20.2233 17.5761Z" fill="#C89318"/>
	<path d="M20.4651 17.3354H19.982V17.8946H20.4651V17.3354Z" fill="#C89318"/>
	<path d="M20.4651 14.9197H19.982V15.479H20.4651V14.9197Z" fill="#C89318"/>
	<path d="M15.8551 20.69C17.3695 20.69 18.5971 19.4624 18.5971 17.948C18.5971 16.4335 17.3695 15.2059 15.8551 15.2059C14.3407 15.2059 13.113 16.4335 13.113 17.948C13.113 19.4624 14.3407 20.69 15.8551 20.69Z" fill="#EAB028"/>
	<path d="M15.8548 20.1696C17.0819 20.1696 18.0767 19.1748 18.0767 17.9477C18.0767 16.7206 17.0819 15.7258 15.8548 15.7258C14.6277 15.7258 13.6329 16.7206 13.6329 17.9477C13.6329 19.1748 14.6277 20.1696 15.8548 20.1696Z" fill="#FFC336"/>
	<path d="M15.8362 19.1169C15.4977 19.1169 15.1984 18.9376 15.0742 18.6601L15.5158 18.4623C15.561 18.5629 15.6925 18.6333 15.8362 18.6333C15.9798 18.6333 16.1116 18.5629 16.1568 18.4623C16.1712 18.4271 16.1751 18.3959 16.1662 18.377C16.1523 18.3476 16.0872 18.2701 15.7847 18.1801C15.5329 18.105 15.2283 17.9858 15.1051 17.7282C15.0566 17.6268 15.0174 17.4603 15.1062 17.2435C15.2335 16.9586 15.5326 16.7792 15.8713 16.7792C16.2098 16.7792 16.5089 16.9586 16.6336 17.2364L16.1919 17.4344C16.1468 17.3335 16.015 17.2632 15.8713 17.2632C15.7277 17.2632 15.5959 17.3335 15.551 17.4341C15.5366 17.4693 15.5326 17.5003 15.5415 17.5194C15.5555 17.5486 15.6206 17.6263 15.9228 17.7164C16.1746 17.7915 16.4792 17.9107 16.6024 18.1682C16.6509 18.2696 16.6901 18.4361 16.601 18.653C16.4737 18.9376 16.1746 19.1169 15.8362 19.1169Z" fill="#C89318"/>
	<path d="M16.0775 18.8741H15.5943V19.4333H16.0775V18.8741Z" fill="#C89318"/>
	<path d="M16.0775 16.461H15.5943V17.0203H16.0775V16.461Z" fill="#C89318"/>
	<path d="M19.967 22.7801C21.4814 22.7801 22.7091 21.5525 22.7091 20.038C22.7091 18.5236 21.4814 17.296 19.967 17.296C18.4526 17.296 17.2249 18.5236 17.2249 20.038C17.2249 21.5525 18.4526 22.7801 19.967 22.7801Z" fill="#EAB028"/>
	<path d="M19.9667 22.2597C21.1938 22.2597 22.1886 21.2649 22.1886 20.0378C22.1886 18.8107 21.1938 17.8159 19.9667 17.8159C18.7396 17.8159 17.7448 18.8107 17.7448 20.0378C17.7448 21.2649 18.7396 22.2597 19.9667 22.2597Z" fill="#FFC336"/>
	<path d="M19.9491 21.206C19.6107 21.206 19.3113 21.0266 19.1871 20.7491L19.6288 20.5514C19.674 20.652 19.8055 20.7223 19.9491 20.7223C20.0928 20.7223 20.2246 20.652 20.2697 20.5514C20.2842 20.5162 20.2881 20.485 20.2792 20.466C20.2653 20.4366 20.2002 20.3592 19.8977 20.2691C19.6459 20.194 19.3413 20.0748 19.2181 19.8172C19.1695 19.7159 19.1304 19.5494 19.2192 19.3325C19.3465 19.0476 19.6456 18.8683 19.9843 18.8683C20.3228 18.8683 20.6219 19.0476 20.7466 19.3254L20.3049 19.5234C20.2598 19.4226 20.1279 19.3522 19.9843 19.3522C19.8407 19.3522 19.7089 19.4226 19.664 19.5231C19.6495 19.5583 19.6456 19.5893 19.6545 19.6085C19.6684 19.6376 19.7336 19.7153 20.0358 19.8054C20.2876 19.8805 20.5922 19.9997 20.7153 20.2573C20.7639 20.3587 20.803 20.5251 20.714 20.742C20.5867 21.0266 20.2876 21.206 19.9491 21.206Z" fill="#C89318"/>
	<path d="M20.1894 20.9641H19.7063V21.5234H20.1894V20.9641Z" fill="#C89318"/>
	<path d="M20.1894 18.5511H19.7063V19.1104H20.1894V18.5511Z" fill="#C89318"/>
</svg>
