<svg viewBox="0 0 100 100" xmlns="http://www.w3.org/2000/svg">
    <path fill-rule="evenodd" clip-rule="evenodd" d="M83.5145 46.741L73.0056 22L10 48.7948L21.5418 75.9739V77.4631H90V46.741H83.5145ZM87.7421 69.2842C86.1994 69.5073 84.7571 70.1816 83.5967 71.2223C82.4363 72.2631 81.6096 73.6237 81.2205 75.1332H30.3693C30.2492 74.634 30.0718 74.1504 29.8409 73.6919L46.3189 66.678C47.5167 69.0783 49.5843 70.9318 52.1008 71.8612C54.6172 72.7906 57.3932 72.7261 59.8637 71.6806C62.3342 70.6352 64.3134 68.6875 65.3983 66.2341C66.4832 63.7807 66.5923 61.006 65.7034 58.475L81.5929 51.7613C82.1099 53.048 82.9554 54.1766 84.0449 55.0343C85.1345 55.8921 86.43 56.449 87.8021 56.6494L87.7421 69.2842ZM19.2839 47.2935L65.6073 27.5968C66.3677 29.3006 67.7048 30.6816 69.3832 31.4967C71.0617 32.3117 72.9738 32.5085 74.7831 32.0525L79.7433 43.7145C78.5242 44.4572 77.5284 45.5153 76.8608 46.7771C76.662 47.1623 76.4972 47.5641 76.3684 47.9781C76.2341 48.3691 76.1336 48.7709 76.0682 49.1791C75.9179 50.0413 75.9179 50.9231 76.0682 51.7853L64.7185 56.5894L59.5421 58.7993L58.4372 59.2677L56.2153 60.2165L53.1287 61.5256L45.5622 64.5882L29.2404 71.5181C28.591 70.6722 27.7777 69.966 26.849 69.4419C25.9204 68.9177 24.8955 68.5863 23.8358 68.4675C23.46 68.4373 23.0825 68.4373 22.7068 68.4675C22.3038 68.4739 21.9021 68.514 21.5058 68.5876C21.2951 68.6242 21.0866 68.6723 20.8812 68.7317L15.921 57.0578C17.531 56.0895 18.7467 54.5832 19.3533 52.8052C19.9599 51.0271 19.9183 49.0919 19.2359 47.3415L19.2839 47.2935ZM58.6654 61.6217C59.0145 61.8923 59.2929 62.2434 59.4769 62.6449C59.661 63.0464 59.7451 63.4865 59.7223 63.9276C59.766 64.4933 59.6537 65.0601 59.3974 65.5662C59.1411 66.0724 58.7508 66.4985 58.269 66.7981C57.637 67.1841 56.9188 67.407 56.1793 67.4466V69.02H55.4106V67.4586C54.6038 67.4174 53.818 67.187 53.1167 66.7861C52.7327 66.51 52.4164 66.1504 52.1917 65.7343C51.967 65.3182 51.8398 64.8565 51.8195 64.384L53.4169 63.6994H53.9694C53.9839 64.1563 54.0901 64.6056 54.2816 65.0206C54.4171 65.218 54.5956 65.3821 54.8036 65.5007C55.0116 65.6192 55.2438 65.6891 55.4827 65.7051V62.8707L58.6173 61.5256L58.6654 61.6217ZM57.5724 64.168C57.5802 63.9689 57.5432 63.7707 57.4642 63.5878C57.3852 63.4049 57.2662 63.242 57.116 63.1111C56.8327 62.907 56.5212 62.7452 56.1912 62.6307V65.6813C56.5066 65.6687 56.8131 65.5734 57.08 65.4051C57.2539 65.2524 57.3892 65.0607 57.4748 64.8457C57.5604 64.6307 57.5939 64.3985 57.5724 64.168ZM50.1439 51.4132C50.1439 51.647 50.0884 51.8776 49.9819 52.0858C49.8144 52.3372 49.5876 52.5434 49.3214 52.6863L48.1203 49.8639C48.4708 49.8457 48.8222 49.8739 49.1652 49.948C49.3526 50.0093 49.5236 50.1126 49.6651 50.2499C49.8067 50.3873 49.915 50.5551 49.9819 50.7406C50.0884 50.9488 50.1439 51.1793 50.1439 51.4132ZM45.4901 59.8803C47.5582 60.2932 49.7029 60.067 51.6393 59.2317L52.0477 59.0516C53.7093 58.2663 55.1344 57.0566 56.1792 55.5446C56.9689 54.4028 57.5279 53.1176 57.8246 51.7614C58.0152 50.8618 58.0919 49.9418 58.0528 49.023C58.0358 48.6202 57.9917 48.2189 57.9207 47.822C57.8725 47.416 57.7922 47.0143 57.6805 46.621C57.5566 46.1659 57.4001 45.7204 57.2121 45.2879C56.3569 43.2744 54.896 41.5772 53.0322 40.4318C51.1685 39.2864 48.9943 38.7498 46.8117 38.8964C44.629 39.0429 42.5462 39.8654 40.8523 41.2497C39.1584 42.634 37.9375 44.5113 37.3592 46.621C37.2485 47.0153 37.1642 47.4165 37.107 47.822C37.0469 48.1943 37.0109 48.5787 36.9869 49.023C36.8764 51.5441 37.6736 54.0212 39.2339 56.0046C40.7941 57.988 43.0139 59.346 45.4901 59.8322V59.8803ZM42.8959 48.2184C42.8959 48.1426 42.8577 48.0716 42.8204 48.0024C42.7986 47.9619 42.7771 47.922 42.7638 47.8821C42.6634 47.567 42.6068 47.2397 42.5956 46.9092V46.7411C42.6047 46.3827 42.678 46.0288 42.8118 45.6962C42.992 45.2344 43.2803 44.8225 43.6525 44.4952C43.9762 44.2477 44.3219 44.0306 44.6854 43.8466L44.2771 42.8618L44.9857 42.5615L45.394 43.5344C46.0542 43.2747 46.7737 43.204 47.4718 43.3302C47.9966 43.4263 48.4875 43.6573 48.896 44.0005C49.3045 44.3438 49.6167 44.7874 49.8018 45.2879L47.9642 46.1286C47.8111 45.8145 47.6038 45.5298 47.3517 45.2879C47.1822 45.1597 46.9816 45.0789 46.7706 45.0536C46.5597 45.0282 46.3457 45.0594 46.1507 45.1437L46.7632 46.7411L47.2556 47.9421H49.5376C49.6911 47.9564 49.8435 47.9804 49.9939 48.0142C50.6108 48.1762 51.1483 48.5558 51.5072 49.0831C51.6534 49.288 51.7744 49.5098 51.8675 49.7437C52.0675 50.1457 52.1824 50.5846 52.2051 51.033C52.2279 51.4814 52.1579 51.9297 51.9996 52.3499C51.9087 52.5612 51.796 52.7624 51.6634 52.9504C51.22 53.5464 50.6444 54.0315 49.9819 54.3676L50.5944 55.8088L49.8979 56.1091L49.2853 54.6678C48.916 54.7834 48.5386 54.8717 48.1564 54.9321C47.7583 54.9923 47.3534 54.9923 46.9554 54.9321C46.3899 54.7839 45.872 54.4929 45.4514 54.087C45.0308 53.6811 44.7215 53.1739 44.5533 52.6141L46.511 51.7854C46.7062 52.2017 46.9794 52.5767 47.3157 52.8903C47.5169 53.0135 47.7426 53.0913 47.977 53.1183C48.2114 53.1453 48.4489 53.1208 48.6728 53.0465L47.3757 49.9718L46.7151 50.0439C45.9026 50.1904 45.0646 50.0857 44.3131 49.7437C43.9994 49.5701 43.7221 49.3377 43.4964 49.0591C43.2569 48.8091 43.0546 48.526 42.8959 48.2184ZM44.9137 47.6009C44.8022 47.4811 44.7163 47.3398 44.6614 47.1856C44.6202 47.0086 44.608 46.8261 44.6253 46.6452C44.5824 46.4635 44.5824 46.2744 44.6253 46.0927C44.7009 45.9233 44.8101 45.7709 44.9464 45.645C45.0827 45.5191 45.2431 45.4221 45.418 45.3601L45.9585 46.6452L46.4509 47.8462V47.9543C46.1448 48.0067 45.8321 48.0067 45.5261 47.9543C45.4504 47.943 45.3772 47.9186 45.3099 47.8822C45.16 47.8164 45.0252 47.7207 44.9137 47.6009Z" />
</svg>
