<svg viewBox="0 0 20 20" xmlns="http://www.w3.org/2000/svg">
<path d="M4.49219 15C4.25781 15 4.14062 14.9089 4.14062 14.7266V14.3281C4.14062 14.151 4.23177 13.9427 4.41406 13.7031L8.92969 7.82812V7.8125C8.77344 7.82292 8.61719 7.82812 8.46094 7.82812H4.67969C4.44531 7.82812 4.32812 7.73698 4.32812 7.55469V7.07031C4.32812 6.88802 4.44531 6.79688 4.67969 6.79688H10.1641C10.3984 6.79688 10.5156 6.88802 10.5156 7.07031V7.4375C10.5156 7.59375 10.4193 7.79688 10.2266 8.04688L5.67969 13.9688V13.9844C5.83594 13.974 5.99219 13.9688 6.14844 13.9688H10.3516C10.5859 13.9688 10.7031 14.0599 10.7031 14.2422V14.7266C10.7031 14.9089 10.5859 15 10.3516 15H4.49219ZM11.7969 10.9844C11.5625 11.1562 11.4453 11.1276 11.4453 10.8984V10.1328C11.4453 9.9401 11.5312 9.78125 11.7031 9.65625L13.0234 8.69531V4.89844C13.0234 4.79427 13.0495 4.69531 13.1016 4.60156L13.6484 3.60938C13.7474 3.42708 13.8281 3.33594 13.8906 3.33594H14.1641C14.3203 3.34635 14.3984 3.4375 14.3984 3.60938V7.17188C14.3984 7.32812 14.3932 7.48438 14.3828 7.64062H14.3984L15.625 6.74219C15.8594 6.57031 15.9766 6.60156 15.9766 6.83594V7.60156C15.9766 7.78906 15.8906 7.94531 15.7188 8.07031L14.3984 9.03125V14.6484C14.3984 14.8828 14.2812 15 14.0469 15H13.375C13.1406 15 13.0234 14.8828 13.0234 14.6484V10.5547C13.0234 10.3984 13.0286 10.2422 13.0391 10.0859H13.0234L11.7969 10.9844Z"></path>
</svg>
