<svg viewBox="0 0 20 20" xmlns="http://www.w3.org/2000/svg">
    <g clip-path="url(#clip0_602_16)">
        <path d="M18.5 1L16.6403 2.60686C14.8742 1.15992 12.606 0.281006 10.1425 0.281006C4.57461 0.281006 -0.00105286 4.75165 -0.00105286 10.1909C-0.00105286 15.6306 4.57497 19.9998 10.1425 19.9998C14.5073 19.9998 18.2582 17.3195 19.6766 13.5391L16.0423 12.6739C15.0697 14.9146 12.8159 16.4603 10.1425 16.4603C6.56375 16.4603 3.72484 13.687 3.72484 10.1905C3.72484 6.6942 6.56357 3.81963 10.1425 3.81963C11.4703 3.81963 12.6903 4.22128 13.7077 4.89828L12 6.5L19.9987 9.22413L18.5 1Z" fill="black"/>
    </g>
</svg>
