<svg viewBox="0 0 48 48" xmlns="http://www.w3.org/2000/svg">
    <path d="M14.5 46L8 41.224V10.8087H13L12.9167 7.95996C12.9167 3.56377 16.4611 0 20.8333 0C24.1014 0 26.907 1.99112 28.1156 4.83256C32.0405 5.30392 35 8.49507 35 12.5683V14.8306L36.75 15.8361H40V46H14.5ZM11.3333 17.9098L13.9583 16.2655V43.235L14.5 43.7796V15.9199L19 15.8361V12.8197H10L11.3333 17.9098ZM22 12.8197V15.8361H32V14.5792L30 12.8197H22ZM29 10.8087H31.5C31.023 9.45177 30.3496 8.77469 29 8.29508V10.8087ZM16.0833 7.95996L16 10.8087H19.25C19.8179 7.99565 22.0197 6.05642 24.6911 5.17291C23.8287 3.96837 22.4221 3.184 20.8333 3.184C18.21 3.184 16.0833 5.32223 16.0833 7.95996ZM25.75 10.8087V8.29508C24.4003 8.77469 23.477 9.45167 23 10.8087H25.75Z" />
</svg>