<svg viewBox="0 0 26 26" xmlns="http://www.w3.org/2000/svg">
<path fill-rule="evenodd" clip-rule="evenodd" d="M13 24C19.0751 24 24 19.0751 24 13C24 6.92487 19.0751 2 13 2C6.92487 2 2 6.92487 2 13C2 19.0751 6.92487 24 13 24ZM19.7071 9.70711C20.0976 9.31658 20.0976 8.68342 19.7071 8.29289C19.3166 7.90237 18.6834 7.90237 18.2929 8.29289L11 15.5858L7.70711 12.2929C7.31658 11.9024 6.68342 11.9024 6.29289 12.2929C5.90237 12.6834 5.90237 13.3166 6.29289 13.7071L10.2929 17.7071C10.6834 18.0976 11.3166 18.0976 11.7071 17.7071L19.7071 9.70711Z"></path>
</svg>
