<svg viewBox="0 0 20 20" xmlns="http://www.w3.org/2000/svg">
<path d="M10.2494 15.16C9.41738 15.16 8.71338 15.048 8.13738 14.824C7.56138 14.6 7.11871 14.2693 6.80938 13.832C6.51071 13.384 6.36138 12.8187 6.36138 12.136C6.36138 11.9333 6.37738 11.7413 6.40938 11.56C6.44138 11.368 6.48404 11.192 6.53738 11.032H5.78538V10.008H7.12938C7.34271 9.79467 7.62538 9.60267 7.97738 9.432C8.34004 9.25067 8.71338 9.09067 9.09738 8.952C9.49204 8.81333 9.83871 8.696 10.1374 8.6C10.436 8.49333 10.628 8.41867 10.7134 8.376H5.78538V7.352H11.8974C11.9827 7.20267 12.0414 7.048 12.0734 6.888C12.116 6.728 12.1374 6.52533 12.1374 6.28C12.1374 5.94933 12.0627 5.66667 11.9134 5.432C11.764 5.18667 11.5347 5 11.2254 4.872C10.916 4.744 10.516 4.68 10.0254 4.68C9.67338 4.68 9.33204 4.712 9.00138 4.776C8.68138 4.84 8.37738 4.92533 8.08938 5.032C7.81204 5.128 7.55071 5.23467 7.30538 5.352L6.90538 4.088C7.31071 3.896 7.80671 3.736 8.39338 3.608C8.98004 3.48 9.55071 3.416 10.1054 3.416C10.8307 3.416 11.4494 3.51733 11.9614 3.72C12.484 3.912 12.884 4.20533 13.1614 4.6C13.4494 4.99467 13.5934 5.496 13.5934 6.104C13.5934 6.328 13.5774 6.552 13.5454 6.776C13.5134 6.98933 13.4547 7.18133 13.3694 7.352H14.2494V8.376H12.8574C12.6867 8.54667 12.42 8.72267 12.0574 8.904C11.6947 9.07467 11.316 9.23467 10.9214 9.384C10.5267 9.53333 10.1694 9.66133 9.84938 9.768C9.52938 9.87467 9.32138 9.95467 9.22538 10.008H14.2494V11.032H8.02538C7.94004 11.192 7.88138 11.3413 7.84938 11.48C7.81738 11.6187 7.80138 11.8107 7.80138 12.056C7.80138 12.472 7.89738 12.8187 8.08938 13.096C8.28138 13.3627 8.56938 13.5653 8.95338 13.704C9.33738 13.8427 9.81204 13.912 10.3774 13.912C10.9854 13.912 11.572 13.8373 12.1374 13.688C12.7134 13.528 13.1934 13.3627 13.5774 13.192V14.488C13.2147 14.6587 12.7294 14.8133 12.1214 14.952C11.5134 15.0907 10.8894 15.16 10.2494 15.16Z"></path>
</svg>
