<svg viewBox="0 0 20 20" xmlns="http://www.w3.org/2000/svg">
<path d="M6.85938 14.25C6.57812 13.9948 6.50521 13.776 6.64062 13.5938L6.95312 13.1719C7.11458 12.9531 7.34115 12.9688 7.63281 13.2188C8.01823 13.5469 8.38542 13.763 8.73438 13.8672C9.08333 13.9661 9.44531 14.0286 9.82031 14.0547V9.91406C9.4401 9.80469 9.06771 9.64583 8.70312 9.4375C8.20833 9.15625 7.82552 8.83594 7.55469 8.47656C7.28385 8.11719 7.11198 7.78385 7.03906 7.47656C6.96615 7.16927 6.92969 6.77083 6.92969 6.28125C6.92969 5.94792 7.04948 5.5651 7.28906 5.13281C7.52865 4.70052 7.86458 4.36198 8.29688 4.11719C8.72917 3.8724 9.23698 3.72135 9.82031 3.66406V2.72656C9.82031 2.49219 9.91146 2.375 10.0938 2.375H10.4844C10.6667 2.375 10.7578 2.49219 10.7578 2.72656V3.67969C11.0964 3.67969 11.4844 3.76042 11.9219 3.92188C12.3646 4.07812 12.6953 4.26302 12.9141 4.47656C13.1536 4.71094 13.2161 4.91406 13.1016 5.08594L12.7656 5.57812C12.5938 5.82812 12.3594 5.79167 12.0625 5.46875C11.8854 5.27604 11.6536 5.13021 11.3672 5.03125C11.0859 4.92708 10.8828 4.875 10.7578 4.875V8.6875C11.1693 8.81771 11.6276 9.03125 12.1328 9.32812C12.487 9.53646 12.7891 9.78385 13.0391 10.0703C13.2891 10.3568 13.4661 10.6719 13.5703 11.0156C13.6745 11.3594 13.7266 11.7135 13.7266 12.0781C13.7266 12.5677 13.6432 13.0052 13.4766 13.3906C13.3099 13.776 13.0052 14.1536 12.5625 14.5234C12.1198 14.8932 11.5182 15.1224 10.7578 15.2109V16.2891C10.7578 16.5234 10.6667 16.6406 10.4844 16.6406H10.0938C9.91146 16.6406 9.82031 16.5234 9.82031 16.2891V15.2266C9.29948 15.2266 8.76042 15.1432 8.20312 14.9766C7.65104 14.8047 7.20312 14.5625 6.85938 14.25ZM8.38281 6.375C8.38281 6.78646 8.45052 7.125 8.58594 7.39062C8.72656 7.65625 8.97656 7.89062 9.33594 8.09375C9.49219 8.18229 9.65365 8.26302 9.82031 8.33594V4.85156C9.48698 4.8776 9.16406 5.01302 8.85156 5.25781C8.53906 5.5026 8.38281 5.875 8.38281 6.375ZM10.7578 14.0078C11.1536 13.9193 11.4922 13.737 11.7734 13.4609C12.0547 13.1849 12.1953 12.7266 12.1953 12.0859C12.1953 11.737 12.1146 11.4245 11.9531 11.1484C11.7969 10.8672 11.5964 10.6536 11.3516 10.5078C11.0807 10.3516 10.8828 10.2526 10.7578 10.2109V14.0078Z"></path>
</svg>
